# xmcd CD database file
#
# Track frame offsets:
#	150
#	111257
#	128637
#	140049
#	152909
#	165082
#	178372
#	193289
#	206907
#	218469
#	230739
#	244759
#	257814
#
# Disc length: 3612 seconds
#
# Revision: 0
# Processed by: cddbd v1.5.2PL0 Copyright (c) Steve Scherf et al.
# Submitted via: CDex 1.51
#
DISCID=c40e1a0d
DTITLE=VARIOS ARTISTAS - Blues
DYEAR=1997
DGENRE=Blues
TTITLE0=Data Track
TTITLE1=Bues Before (Carr). John Lee Hooker
TTITLE2=Paying the Cost To Be The Boss (B.B.King). B.B.King
TTITLE3=Ami Blue (Akst-Clarke). Billie Holiday
TTITLE4=Going Down Slow (I've Had My Run) (Ogden). Ray Charles
TTITLE5=Black Train Blues (White). Bukka White
TTITLE6=Four Hands Are Better Than Two (Johnson). Lonnie Johnson
TTITLE7=My Brownskin Sugar Plum (Allen). Blind Boy Fuller
TTITLE8=Got The Botttle Up And Go (Trad. arr: Williamson). Sonny Boy Williamson
TTITLE9=Rebecca (Turner-Johnson). Big Joe Turner
TTITLE10=Stomp Down Rider (McTell). Blind Willie McTell
TTITLE11=Bull Cow Blues (broonzy). Big Bill Broonzy
TTITLE12=When You Got a Frend (Johnson). Robert Johonson
EXTD=YEAR: 1997
EXTT0=
EXTT1=
EXTT2=
EXTT3=
EXTT4=
EXTT5=
EXTT6=
EXTT7=
EXTT8=
EXTT9=
EXTT10=
EXTT11=
EXTT12=
PLAYORDER=
